<?xml version="1.0" encoding="UTF-8"?>
<svg xmlns="http://www.w3.org/2000/svg" xmlns:xlink="http://www.w3.org/1999/xlink" width="15px" height="16px" viewBox="0 0 15 15" version="1.1">
<g id="surface1">
<path style=" stroke:none;fill-rule:nonzero;fill:rgb(0%,0%,0%);fill-opacity:1;" d="M 0 15 L 15 15 L 15 1.304688 L 12.953125 1.304688 L 12.953125 0 L 11.589844 0 L 11.589844 3.851562 L 10.910156 3.851562 L 10.910156 1.304688 L 4.089844 1.304688 L 4.089844 0 L 2.726562 0 L 2.726562 3.851562 L 2.046875 3.851562 L 2.046875 1.304688 L 0 1.304688 Z M 10.910156 8.417969 L 10.910156 7.113281 L 12.273438 7.113281 L 12.273438 8.417969 Z M 12.273438 9.070312 L 12.273438 10.375 L 10.910156 10.375 L 10.910156 9.070312 Z M 8.863281 10.375 L 8.863281 9.070312 L 10.226562 9.070312 L 10.226562 10.375 Z M 10.226562 11.027344 L 10.226562 12.332031 L 8.863281 12.332031 L 8.863281 11.027344 Z M 8.863281 8.417969 L 8.863281 7.113281 L 10.226562 7.113281 L 10.226562 8.417969 Z M 6.816406 10.375 L 6.816406 9.070312 L 8.183594 9.070312 L 8.183594 10.375 Z M 8.183594 11.027344 L 8.183594 12.332031 L 6.816406 12.332031 L 6.816406 11.027344 Z M 6.816406 8.417969 L 6.816406 7.113281 L 8.183594 7.113281 L 8.183594 8.417969 Z M 4.773438 10.375 L 4.773438 9.070312 L 6.136719 9.070312 L 6.136719 10.375 Z M 6.136719 11.027344 L 6.136719 12.332031 L 4.773438 12.332031 L 4.773438 11.027344 Z M 4.773438 8.417969 L 4.773438 7.113281 L 6.136719 7.113281 L 6.136719 8.417969 Z M 2.726562 10.375 L 2.726562 9.070312 L 4.089844 9.070312 L 4.089844 10.375 Z M 4.089844 11.027344 L 4.089844 12.332031 L 2.726562 12.332031 L 2.726562 11.027344 Z M 4.089844 11.027344 "/>
</g>
</svg>
