<?xml version="1.0" encoding="UTF-8"?>
<svg xmlns="http://www.w3.org/2000/svg" xmlns:xlink="http://www.w3.org/1999/xlink" width="15px" height="15px" viewBox="0 0 15 15" version="1.1">
<g id="surface1">
<path style=" stroke:none;fill-rule:nonzero;fill:rgb(0%,0%,0%);fill-opacity:1;" d="M 3.621094 8.042969 C 2.777344 8.042969 2.09375 8.726562 2.09375 9.570312 C 2.09375 10.414062 2.777344 11.097656 3.621094 11.097656 C 4.464844 11.097656 5.148438 10.414062 5.148438 9.570312 C 5.148438 8.726562 4.464844 8.042969 3.621094 8.042969 Z M 3.621094 10.03125 C 3.367188 10.03125 3.160156 9.824219 3.160156 9.570312 C 3.160156 9.316406 3.367188 9.109375 3.621094 9.109375 C 3.875 9.109375 4.082031 9.316406 4.082031 9.570312 C 4.082031 9.824219 3.875 10.03125 3.621094 10.03125 Z M 3.621094 10.03125 "/>
<path style=" stroke:none;fill-rule:nonzero;fill:rgb(0%,0%,0%);fill-opacity:1;" d="M 14.746094 8.320312 L 14.496094 6.285156 C 14.449219 5.894531 14.105469 5.609375 13.714844 5.628906 L 13.164062 5.660156 L 11.464844 4.128906 C 11.300781 3.980469 11.089844 3.902344 10.871094 3.902344 L 7.414062 3.902344 C 6.640625 3.902344 5.890625 4.164062 5.285156 4.652344 L 3.355469 6.199219 L 0.765625 6.847656 C 0.433594 6.929688 0.199219 7.230469 0.199219 7.574219 L 0.199219 8.320312 C 0.0898438 8.320312 0 8.40625 0 8.519531 L 0 9.503906 C 0 9.644531 0.113281 9.761719 0.253906 9.761719 L 1.71875 9.761719 C 1.710938 9.695312 1.699219 9.636719 1.699219 9.570312 C 1.699219 8.507812 2.558594 7.648438 3.621094 7.648438 C 4.683594 7.648438 5.542969 8.507812 5.542969 9.570312 C 5.542969 9.636719 5.53125 9.699219 5.523438 9.761719 L 9.574219 9.761719 C 9.570312 9.695312 9.554688 9.636719 9.554688 9.570312 C 9.554688 8.507812 10.417969 7.648438 11.476562 7.648438 C 12.539062 7.648438 13.398438 8.507812 13.398438 9.570312 C 13.398438 9.636719 13.386719 9.699219 13.378906 9.761719 L 14.746094 9.761719 C 14.886719 9.761719 15 9.644531 15 9.503906 L 15 8.574219 C 15 8.433594 14.886719 8.320312 14.746094 8.320312 Z M 9.621094 5.820312 L 4.800781 6.0625 L 5.722656 5.324219 C 6.226562 4.917969 6.847656 4.699219 7.492188 4.699219 L 9.621094 4.699219 Z M 10.421875 5.78125 L 10.421875 4.699219 L 10.734375 4.699219 C 10.84375 4.699219 10.949219 4.742188 11.027344 4.8125 L 12.011719 5.699219 Z M 10.421875 5.78125 "/>
<path style=" stroke:none;fill-rule:nonzero;fill:rgb(0%,0%,0%);fill-opacity:1;" d="M 11.480469 8.042969 C 10.632812 8.042969 9.953125 8.726562 9.953125 9.570312 C 9.953125 10.414062 10.636719 11.097656 11.480469 11.097656 C 12.324219 11.097656 13.007812 10.414062 13.007812 9.570312 C 13.007812 8.726562 12.324219 8.042969 11.480469 8.042969 Z M 11.480469 10.03125 C 11.226562 10.03125 11.019531 9.824219 11.019531 9.570312 C 11.019531 9.316406 11.226562 9.109375 11.480469 9.109375 C 11.730469 9.109375 11.941406 9.316406 11.941406 9.570312 C 11.941406 9.824219 11.734375 10.03125 11.480469 10.03125 Z M 11.480469 10.03125 "/>
</g>
</svg>
