<?xml version="1.0" encoding="UTF-8"?>
<svg xmlns="http://www.w3.org/2000/svg" xmlns:xlink="http://www.w3.org/1999/xlink" width="50px" height="50px" viewBox="0 0 50 50" version="1.1">
<g id="surface1">
<path style=" stroke:none;fill-rule:nonzero;fill:rgb(21.960784%,16.862746%,45.09804%);fill-opacity:1;" d="M 48.320312 25 C 48.320312 12.121094 37.878906 1.679688 25 1.679688 C 12.121094 1.679688 1.679688 12.121094 1.679688 25 C 1.679688 37.878906 12.121094 48.320312 25 48.320312 C 37.878906 48.320312 48.320312 37.878906 48.320312 25 Z M 48.320312 25 "/>
<path style=" stroke:none;fill-rule:nonzero;fill:rgb(27.843139%,18.82353%,50.196081%);fill-opacity:1;" d="M 45.175781 25 C 45.175781 13.855469 36.144531 4.824219 25 4.824219 C 13.855469 4.824219 4.824219 13.855469 4.824219 25 C 4.824219 36.144531 13.855469 45.175781 25 45.175781 C 36.144531 45.175781 45.175781 36.144531 45.175781 25 Z M 45.175781 25 "/>
<path style=" stroke:none;fill-rule:nonzero;fill:rgb(21.960784%,16.862746%,45.09804%);fill-opacity:1;" d="M 37.417969 38.109375 L 33.855469 14.203125 L 33.855469 12.863281 C 33.855469 12.386719 33.46875 12 32.992188 12 L 18.582031 12 C 18.507812 11.457031 18.042969 11.042969 17.484375 11.042969 C 16.953125 11.042969 16.523438 11.46875 16.523438 12 L 15.40625 12 C 14.929688 12 14.542969 12.386719 14.542969 12.863281 L 14.542969 15.308594 C 14.527344 15.394531 14.519531 15.488281 14.535156 15.582031 L 14.542969 15.632812 L 14.542969 38.515625 C 14.542969 38.992188 14.929688 39.378906 15.40625 39.378906 L 18.082031 39.378906 L 18.199219 40.160156 L 18.316406 40.957031 C 18.386719 41.429688 18.828125 41.753906 19.296875 41.683594 L 29.507812 40.160156 L 31.230469 39.90625 L 36.691406 39.089844 C 37.164062 39.019531 37.488281 38.582031 37.417969 38.109375 Z M 37.417969 38.109375 "/>
<path style=" stroke:none;fill-rule:nonzero;fill:rgb(15.294118%,75.686276%,90.196079%);fill-opacity:1;" d="M 36.691406 37.722656 L 19.296875 40.316406 C 18.828125 40.386719 18.386719 40.0625 18.316406 39.589844 L 14.535156 14.214844 C 14.464844 13.746094 14.789062 13.304688 15.261719 13.234375 L 32.65625 10.640625 C 33.125 10.570312 33.566406 10.898438 33.636719 11.367188 L 37.417969 36.742188 C 37.488281 37.214844 37.164062 37.652344 36.691406 37.722656 Z M 36.691406 37.722656 "/>
<path style=" stroke:none;fill-rule:nonzero;fill:rgb(0%,60.392159%,86.666667%);fill-opacity:1;" d="M 33.699219 11.78125 C 33.542969 11.558594 33.285156 11.414062 32.992188 11.414062 L 27.476562 11.414062 L 15.261719 13.234375 C 14.882812 13.292969 14.605469 13.585938 14.542969 13.941406 L 14.542969 14.265625 L 18.199219 38.792969 L 29.507812 38.792969 L 33.824219 38.152344 C 33.839844 38.078125 33.855469 38.007812 33.855469 37.929688 L 33.855469 12.835938 Z M 33.699219 11.78125 "/>
<path style=" stroke:none;fill-rule:nonzero;fill:rgb(100%,100%,100%);fill-opacity:1;" d="M 32.992188 38.011719 L 15.40625 38.011719 C 14.929688 38.011719 14.542969 37.625 14.542969 37.148438 L 14.542969 11.496094 C 14.542969 11.019531 14.929688 10.632812 15.40625 10.632812 L 32.992188 10.632812 C 33.46875 10.632812 33.855469 11.019531 33.855469 11.496094 L 33.855469 37.148438 C 33.855469 37.625 33.46875 38.011719 32.992188 38.011719 Z M 32.992188 38.011719 "/>
<path style=" stroke:none;fill-rule:nonzero;fill:rgb(90.196079%,90.588236%,90.980393%);fill-opacity:1;" d="M 18.285156 11.21875 L 18.285156 13.9375 C 18.285156 14.339844 17.960938 14.664062 17.558594 14.664062 C 17.15625 14.664062 16.832031 14.339844 16.832031 13.9375 L 16.832031 12.449219 L 16.214844 12.449219 L 16.214844 13.9375 C 16.214844 14.679688 16.816406 15.285156 17.558594 15.285156 C 18.300781 15.285156 18.902344 14.679688 18.902344 13.9375 L 18.902344 11.21875 C 18.902344 11.007812 18.855469 10.8125 18.777344 10.632812 L 18.027344 10.632812 C 18.1875 10.78125 18.285156 10.988281 18.285156 11.21875 Z M 18.285156 11.21875 "/>
<path style=" stroke:none;fill-rule:nonzero;fill:rgb(10.980392%,68.235296%,89.411765%);fill-opacity:1;" d="M 17.558594 14.851562 C 16.816406 14.851562 16.214844 14.25 16.214844 13.507812 L 16.214844 12.019531 L 16.832031 12.019531 L 16.832031 13.507812 C 16.832031 13.90625 17.15625 14.234375 17.558594 14.234375 C 17.960938 14.234375 18.285156 13.90625 18.285156 13.507812 L 18.285156 10.785156 C 18.285156 10.34375 17.925781 9.984375 17.484375 9.984375 C 17.125 9.984375 16.832031 10.277344 16.832031 10.632812 L 16.214844 10.632812 C 16.214844 9.933594 16.785156 9.367188 17.484375 9.367188 C 18.265625 9.367188 18.902344 10.003906 18.902344 10.785156 L 18.902344 13.507812 C 18.902344 14.25 18.300781 14.851562 17.558594 14.851562 Z M 17.558594 14.851562 "/>
<path style=" stroke:none;fill-rule:nonzero;fill:rgb(73.725492%,74.509805%,75.294119%);fill-opacity:1;" d="M 30.707031 28.648438 L 19.453125 28.648438 C 19.128906 28.648438 18.867188 28.386719 18.867188 28.0625 C 18.867188 27.738281 19.128906 27.476562 19.453125 27.476562 L 30.707031 27.476562 C 31.03125 27.476562 31.292969 27.738281 31.292969 28.0625 C 31.292969 28.386719 31.03125 28.648438 30.707031 28.648438 Z M 30.707031 28.648438 "/>
<path style=" stroke:none;fill-rule:nonzero;fill:rgb(73.725492%,74.509805%,75.294119%);fill-opacity:1;" d="M 21.429688 31.613281 L 17.109375 31.613281 C 16.785156 31.613281 16.523438 31.347656 16.523438 31.027344 C 16.523438 30.703125 16.785156 30.441406 17.109375 30.441406 L 21.429688 30.441406 C 21.753906 30.441406 22.015625 30.703125 22.015625 31.027344 C 22.015625 31.347656 21.753906 31.613281 21.429688 31.613281 Z M 21.429688 31.613281 "/>
<path style=" stroke:none;fill-rule:nonzero;fill:rgb(73.725492%,74.509805%,75.294119%);fill-opacity:1;" d="M 30.707031 31.613281 L 23.773438 31.613281 C 23.453125 31.613281 23.1875 31.347656 23.1875 31.027344 C 23.1875 30.703125 23.453125 30.441406 23.773438 30.441406 L 30.707031 30.441406 C 31.03125 30.441406 31.292969 30.703125 31.292969 31.027344 C 31.292969 31.347656 31.03125 31.613281 30.707031 31.613281 Z M 30.707031 31.613281 "/>
<path style=" stroke:none;fill-rule:nonzero;fill:rgb(73.725492%,74.509805%,75.294119%);fill-opacity:1;" d="M 30.707031 34.574219 L 17.109375 34.574219 C 16.785156 34.574219 16.523438 34.3125 16.523438 33.988281 C 16.523438 33.664062 16.785156 33.402344 17.109375 33.402344 L 30.707031 33.402344 C 31.03125 33.402344 31.292969 33.664062 31.292969 33.988281 C 31.292969 34.3125 31.03125 34.574219 30.707031 34.574219 Z M 30.707031 34.574219 "/>
<path style=" stroke:none;fill-rule:nonzero;fill:rgb(73.725492%,74.509805%,75.294119%);fill-opacity:1;" d="M 17.109375 28.648438 C 16.785156 28.648438 16.523438 28.386719 16.523438 28.0625 C 16.523438 27.738281 16.785156 27.476562 17.109375 27.476562 C 17.433594 27.476562 17.695312 27.738281 17.695312 28.0625 C 17.695312 28.386719 17.433594 28.648438 17.109375 28.648438 Z M 17.109375 28.648438 "/>
<path style=" stroke:none;fill-rule:nonzero;fill:rgb(99.607843%,87.058824%,22.745098%);fill-opacity:1;" d="M 14.542969 17.386719 L 33.855469 17.386719 L 33.855469 22.171875 L 14.542969 22.171875 Z M 14.542969 17.386719 "/>
<path style=" stroke:none;fill-rule:nonzero;fill:rgb(0%,60.392159%,86.666667%);fill-opacity:1;" d="M 29.40625 24.730469 L 18.671875 24.730469 C 18.398438 24.730469 18.179688 24.507812 18.179688 24.238281 L 18.179688 16.777344 C 18.179688 16.503906 18.398438 16.285156 18.671875 16.285156 L 29.40625 16.285156 C 29.679688 16.285156 29.898438 16.503906 29.898438 16.777344 L 29.898438 24.238281 C 29.898438 24.507812 29.679688 24.730469 29.40625 24.730469 Z M 29.40625 24.730469 "/>
<path style=" stroke:none;fill-rule:nonzero;fill:rgb(10.980392%,68.235296%,89.411765%);fill-opacity:1;" d="M 29.40625 24.113281 L 18.671875 24.113281 C 18.398438 24.113281 18.179688 23.894531 18.179688 23.621094 L 18.179688 16.160156 C 18.179688 15.890625 18.398438 15.667969 18.671875 15.667969 L 29.40625 15.667969 C 29.679688 15.667969 29.898438 15.890625 29.898438 16.160156 L 29.898438 23.621094 C 29.898438 23.894531 29.679688 24.113281 29.40625 24.113281 Z M 29.40625 24.113281 "/>
<path style=" stroke:none;fill-rule:nonzero;fill:rgb(15.294118%,75.686276%,90.196079%);fill-opacity:1;" d="M 23.921875 21.566406 L 24.152344 21.566406 L 24.152344 24.113281 L 23.921875 24.113281 Z M 23.921875 21.566406 "/>
<path style=" stroke:none;fill-rule:nonzero;fill:rgb(0%,60.392159%,86.666667%);fill-opacity:1;" d="M 24.039062 21.324219 C 26.605469 21.324219 28.859375 20.308594 30.167969 18.769531 C 30.242188 18.679688 30.28125 18.570312 30.28125 18.453125 L 30.28125 16.160156 C 30.28125 15.890625 30.058594 15.667969 29.789062 15.667969 L 18.289062 15.667969 C 18.019531 15.667969 17.796875 15.890625 17.796875 16.160156 L 17.796875 18.453125 C 17.796875 18.570312 17.835938 18.679688 17.910156 18.769531 C 19.214844 20.308594 21.472656 21.324219 24.039062 21.324219 Z M 24.039062 21.324219 "/>
<path style=" stroke:none;fill-rule:nonzero;fill:rgb(10.980392%,68.235296%,89.411765%);fill-opacity:1;" d="M 29.789062 15.667969 L 18.289062 15.667969 C 18.019531 15.667969 17.796875 15.890625 17.796875 16.160156 L 17.796875 17.023438 C 17.796875 16.75 18.019531 16.53125 18.289062 16.53125 L 29.789062 16.53125 C 30.058594 16.53125 30.28125 16.75 30.28125 17.023438 L 30.28125 16.160156 C 30.28125 15.890625 30.058594 15.667969 29.789062 15.667969 Z M 29.789062 15.667969 "/>
<path style=" stroke:none;fill-rule:nonzero;fill:rgb(10.980392%,68.235296%,89.411765%);fill-opacity:1;" d="M 24.039062 14.167969 C 22.980469 14.167969 22.148438 14.671875 22.105469 15.320312 L 22.597656 15.320312 C 22.65625 15 23.230469 14.660156 24.039062 14.660156 C 24.847656 14.660156 25.421875 15 25.480469 15.320312 L 25.972656 15.320312 C 25.929688 14.671875 25.097656 14.167969 24.039062 14.167969 Z M 24.039062 14.167969 "/>
<path style=" stroke:none;fill-rule:nonzero;fill:rgb(99.607843%,87.058824%,22.745098%);fill-opacity:1;" d="M 22.726562 15.320312 L 21.976562 15.320312 C 21.910156 15.320312 21.855469 15.375 21.855469 15.445312 L 21.855469 15.671875 L 22.847656 15.671875 L 22.847656 15.445312 C 22.847656 15.375 22.792969 15.320312 22.726562 15.320312 Z M 22.726562 15.320312 "/>
<path style=" stroke:none;fill-rule:nonzero;fill:rgb(99.607843%,87.058824%,22.745098%);fill-opacity:1;" d="M 26.101562 15.320312 L 25.351562 15.320312 C 25.28125 15.320312 25.226562 15.375 25.226562 15.445312 L 25.226562 15.671875 L 26.222656 15.671875 L 26.222656 15.445312 C 26.222656 15.375 26.167969 15.320312 26.101562 15.320312 Z M 26.101562 15.320312 "/>
<path style=" stroke:none;fill-rule:nonzero;fill:rgb(0%,60.392159%,86.666667%);fill-opacity:1;" d="M 25.480469 15.320312 L 25.726562 15.320312 C 25.679688 14.816406 24.941406 14.414062 24.039062 14.414062 C 23.136719 14.414062 22.398438 14.816406 22.351562 15.320312 L 22.597656 15.320312 C 22.65625 15 23.230469 14.660156 24.039062 14.660156 C 24.847656 14.660156 25.421875 15 25.480469 15.320312 Z M 25.480469 15.320312 "/>
<path style=" stroke:none;fill-rule:nonzero;fill:rgb(10.980392%,68.235296%,89.411765%);fill-opacity:1;" d="M 23.4375 15.667969 L 24.640625 15.667969 L 24.640625 20.230469 L 23.4375 20.230469 Z M 23.4375 15.667969 "/>
<path style=" stroke:none;fill-rule:nonzero;fill:rgb(15.294118%,75.686276%,90.196079%);fill-opacity:1;" d="M 23.4375 15.667969 L 24.640625 15.667969 L 24.640625 16.53125 L 23.4375 16.53125 Z M 23.4375 15.667969 "/>
<path style=" stroke:none;fill-rule:nonzero;fill:rgb(100%,95.294118%,20.784314%);fill-opacity:1;" d="M 24.945312 21.566406 L 23.132812 21.566406 C 23.042969 21.566406 22.96875 21.496094 22.96875 21.40625 L 22.96875 20.394531 C 22.96875 20.304688 23.042969 20.230469 23.132812 20.230469 L 24.945312 20.230469 C 25.035156 20.230469 25.109375 20.304688 25.109375 20.394531 L 25.109375 21.40625 C 25.109375 21.496094 25.035156 21.566406 24.945312 21.566406 Z M 24.945312 21.566406 "/>
<path style=" stroke:none;fill-rule:nonzero;fill:rgb(96.862745%,79.607844%,8.235294%);fill-opacity:1;" d="M 24.945312 21.410156 L 23.132812 21.410156 C 23.042969 21.410156 22.96875 21.339844 22.96875 21.25 L 22.96875 21.40625 C 22.96875 21.496094 23.042969 21.566406 23.132812 21.566406 L 24.945312 21.566406 C 25.035156 21.566406 25.109375 21.496094 25.109375 21.40625 L 25.109375 21.25 C 25.109375 21.339844 25.035156 21.410156 24.945312 21.410156 Z M 24.945312 21.410156 "/>
<path style=" stroke:none;fill-rule:nonzero;fill:rgb(96.862745%,79.607844%,8.235294%);fill-opacity:1;" d="M 24.59375 21.054688 L 23.484375 21.054688 C 23.402344 21.054688 23.339844 20.992188 23.339844 20.910156 L 23.339844 20.742188 C 23.339844 20.664062 23.402344 20.601562 23.484375 20.601562 L 24.59375 20.601562 C 24.671875 20.601562 24.738281 20.664062 24.738281 20.742188 L 24.738281 20.910156 C 24.738281 20.992188 24.671875 21.054688 24.59375 21.054688 Z M 24.59375 21.054688 "/>
</g>
</svg>
