<?xml version="1.0" encoding="UTF-8"?>
<svg xmlns="http://www.w3.org/2000/svg" xmlns:xlink="http://www.w3.org/1999/xlink" width="20px" height="20px" viewBox="0 0 20 20" version="1.1">
<g id="surface1">
<path style=" stroke:none;fill-rule:nonzero;fill:rgb(21.960784%,16.862746%,45.09804%);fill-opacity:1;" d="M 19.328125 10 C 19.328125 4.847656 15.152344 0.671875 10 0.671875 C 4.847656 0.671875 0.671875 4.847656 0.671875 10 C 0.671875 15.152344 4.847656 19.328125 10 19.328125 C 15.152344 19.328125 19.328125 15.152344 19.328125 10 Z M 19.328125 10 "/>
<path style=" stroke:none;fill-rule:nonzero;fill:rgb(27.843139%,18.82353%,50.196081%);fill-opacity:1;" d="M 18.070312 10 C 18.070312 5.542969 14.457031 1.929688 10 1.929688 C 5.542969 1.929688 1.929688 5.542969 1.929688 10 C 1.929688 14.457031 5.542969 18.070312 10 18.070312 C 14.457031 18.070312 18.070312 14.457031 18.070312 10 Z M 18.070312 10 "/>
<path style=" stroke:none;fill-rule:nonzero;fill:rgb(21.960784%,16.862746%,45.09804%);fill-opacity:1;" d="M 14.96875 15.242188 L 13.542969 5.679688 L 13.542969 5.144531 C 13.542969 4.953125 13.386719 4.800781 13.195312 4.800781 L 7.433594 4.800781 C 7.402344 4.582031 7.21875 4.417969 6.992188 4.417969 C 6.78125 4.417969 6.609375 4.589844 6.609375 4.800781 L 6.164062 4.800781 C 5.972656 4.800781 5.816406 4.953125 5.816406 5.144531 L 5.816406 6.121094 C 5.8125 6.160156 5.808594 6.195312 5.8125 6.234375 L 5.816406 6.253906 L 5.816406 15.40625 C 5.816406 15.597656 5.972656 15.75 6.164062 15.75 L 7.234375 15.75 L 7.28125 16.0625 L 7.328125 16.382812 C 7.355469 16.570312 7.53125 16.703125 7.71875 16.671875 L 11.804688 16.0625 L 12.492188 15.960938 L 14.675781 15.636719 C 14.867188 15.609375 14.996094 15.433594 14.96875 15.242188 Z M 14.96875 15.242188 "/>
<path style=" stroke:none;fill-rule:nonzero;fill:rgb(15.294118%,75.686276%,90.196079%);fill-opacity:1;" d="M 14.675781 15.089844 L 7.71875 16.125 C 7.53125 16.15625 7.355469 16.023438 7.328125 15.835938 L 5.8125 5.6875 C 5.785156 5.496094 5.914062 5.320312 6.105469 5.292969 L 13.0625 4.257812 C 13.25 4.230469 13.425781 4.359375 13.453125 4.546875 L 14.96875 14.695312 C 14.996094 14.886719 14.867188 15.0625 14.675781 15.089844 Z M 14.675781 15.089844 "/>
<path style=" stroke:none;fill-rule:nonzero;fill:rgb(0%,60.392159%,86.666667%);fill-opacity:1;" d="M 13.480469 4.714844 C 13.417969 4.625 13.3125 4.566406 13.195312 4.566406 L 10.992188 4.566406 L 6.105469 5.292969 C 5.953125 5.316406 5.839844 5.433594 5.816406 5.574219 L 5.816406 5.707031 L 7.28125 15.515625 L 11.804688 15.515625 L 13.527344 15.261719 C 13.535156 15.230469 13.542969 15.203125 13.542969 15.171875 L 13.542969 5.132812 Z M 13.480469 4.714844 "/>
<path style=" stroke:none;fill-rule:nonzero;fill:rgb(100%,100%,100%);fill-opacity:1;" d="M 13.195312 15.203125 L 6.160156 15.203125 C 5.972656 15.203125 5.816406 15.050781 5.816406 14.859375 L 5.816406 4.597656 C 5.816406 4.40625 5.972656 4.253906 6.160156 4.253906 L 13.195312 4.253906 C 13.386719 4.253906 13.542969 4.40625 13.542969 4.597656 L 13.542969 14.859375 C 13.542969 15.050781 13.386719 15.203125 13.195312 15.203125 Z M 13.195312 15.203125 "/>
<path style=" stroke:none;fill-rule:nonzero;fill:rgb(90.196079%,90.588236%,90.980393%);fill-opacity:1;" d="M 7.3125 4.488281 L 7.3125 5.574219 C 7.3125 5.734375 7.183594 5.867188 7.023438 5.867188 C 6.863281 5.867188 6.734375 5.734375 6.734375 5.574219 L 6.734375 4.980469 L 6.484375 4.980469 L 6.484375 5.574219 C 6.484375 5.871094 6.726562 6.113281 7.023438 6.113281 C 7.320312 6.113281 7.5625 5.871094 7.5625 5.574219 L 7.5625 4.488281 C 7.5625 4.402344 7.542969 4.324219 7.511719 4.253906 L 7.210938 4.253906 C 7.273438 4.3125 7.3125 4.394531 7.3125 4.488281 Z M 7.3125 4.488281 "/>
<path style=" stroke:none;fill-rule:nonzero;fill:rgb(10.980392%,68.235296%,89.411765%);fill-opacity:1;" d="M 7.023438 5.941406 C 6.726562 5.941406 6.484375 5.699219 6.484375 5.402344 L 6.484375 4.808594 L 6.734375 4.808594 L 6.734375 5.402344 C 6.734375 5.5625 6.863281 5.695312 7.023438 5.695312 C 7.183594 5.695312 7.3125 5.5625 7.3125 5.402344 L 7.3125 4.316406 C 7.3125 4.136719 7.171875 3.992188 6.992188 3.992188 C 6.847656 3.992188 6.734375 4.109375 6.734375 4.253906 L 6.484375 4.253906 C 6.484375 3.972656 6.714844 3.746094 6.992188 3.746094 C 7.304688 3.746094 7.5625 4 7.5625 4.316406 L 7.5625 5.402344 C 7.5625 5.699219 7.320312 5.941406 7.023438 5.941406 Z M 7.023438 5.941406 "/>
<path style=" stroke:none;fill-rule:nonzero;fill:rgb(73.725492%,74.509805%,75.294119%);fill-opacity:1;" d="M 12.28125 11.460938 L 7.78125 11.460938 C 7.652344 11.460938 7.546875 11.355469 7.546875 11.226562 C 7.546875 11.097656 7.652344 10.992188 7.78125 10.992188 L 12.28125 10.992188 C 12.414062 10.992188 12.515625 11.097656 12.515625 11.226562 C 12.515625 11.355469 12.414062 11.460938 12.28125 11.460938 Z M 12.28125 11.460938 "/>
<path style=" stroke:none;fill-rule:nonzero;fill:rgb(73.725492%,74.509805%,75.294119%);fill-opacity:1;" d="M 8.574219 12.644531 L 6.84375 12.644531 C 6.714844 12.644531 6.609375 12.539062 6.609375 12.410156 C 6.609375 12.28125 6.714844 12.175781 6.84375 12.175781 L 8.574219 12.175781 C 8.703125 12.175781 8.808594 12.28125 8.808594 12.410156 C 8.808594 12.539062 8.703125 12.644531 8.574219 12.644531 Z M 8.574219 12.644531 "/>
<path style=" stroke:none;fill-rule:nonzero;fill:rgb(73.725492%,74.509805%,75.294119%);fill-opacity:1;" d="M 12.28125 12.644531 L 9.511719 12.644531 C 9.378906 12.644531 9.277344 12.539062 9.277344 12.410156 C 9.277344 12.28125 9.378906 12.175781 9.511719 12.175781 L 12.28125 12.175781 C 12.414062 12.175781 12.515625 12.28125 12.515625 12.410156 C 12.515625 12.539062 12.414062 12.644531 12.28125 12.644531 Z M 12.28125 12.644531 "/>
<path style=" stroke:none;fill-rule:nonzero;fill:rgb(73.725492%,74.509805%,75.294119%);fill-opacity:1;" d="M 12.28125 13.828125 L 6.84375 13.828125 C 6.714844 13.828125 6.609375 13.726562 6.609375 13.59375 C 6.609375 13.464844 6.714844 13.359375 6.84375 13.359375 L 12.28125 13.359375 C 12.414062 13.359375 12.515625 13.464844 12.515625 13.59375 C 12.515625 13.722656 12.414062 13.828125 12.28125 13.828125 Z M 12.28125 13.828125 "/>
<path style=" stroke:none;fill-rule:nonzero;fill:rgb(73.725492%,74.509805%,75.294119%);fill-opacity:1;" d="M 6.84375 11.460938 C 6.714844 11.460938 6.609375 11.355469 6.609375 11.226562 C 6.609375 11.097656 6.714844 10.992188 6.84375 10.992188 C 6.972656 10.992188 7.078125 11.097656 7.078125 11.226562 C 7.078125 11.355469 6.972656 11.460938 6.84375 11.460938 Z M 6.84375 11.460938 "/>
<path style=" stroke:none;fill-rule:nonzero;fill:rgb(99.607843%,87.058824%,22.745098%);fill-opacity:1;" d="M 5.816406 6.953125 L 13.542969 6.953125 L 13.542969 8.867188 L 5.816406 8.867188 Z M 5.816406 6.953125 "/>
<path style=" stroke:none;fill-rule:nonzero;fill:rgb(0%,60.392159%,86.666667%);fill-opacity:1;" d="M 11.761719 9.890625 L 7.46875 9.890625 C 7.359375 9.890625 7.273438 9.804688 7.273438 9.695312 L 7.273438 6.710938 C 7.273438 6.601562 7.359375 6.515625 7.46875 6.515625 L 11.761719 6.515625 C 11.871094 6.515625 11.960938 6.601562 11.960938 6.710938 L 11.960938 9.695312 C 11.960938 9.804688 11.871094 9.890625 11.761719 9.890625 Z M 11.761719 9.890625 "/>
<path style=" stroke:none;fill-rule:nonzero;fill:rgb(10.980392%,68.235296%,89.411765%);fill-opacity:1;" d="M 11.761719 9.644531 L 7.46875 9.644531 C 7.359375 9.644531 7.273438 9.558594 7.273438 9.449219 L 7.273438 6.464844 C 7.273438 6.355469 7.359375 6.269531 7.46875 6.269531 L 11.761719 6.269531 C 11.871094 6.269531 11.960938 6.355469 11.960938 6.464844 L 11.960938 9.449219 C 11.960938 9.558594 11.871094 9.644531 11.761719 9.644531 Z M 11.761719 9.644531 "/>
<path style=" stroke:none;fill-rule:nonzero;fill:rgb(15.294118%,75.686276%,90.196079%);fill-opacity:1;" d="M 9.570312 8.628906 L 9.660156 8.628906 L 9.660156 9.644531 L 9.570312 9.644531 Z M 9.570312 8.628906 "/>
<path style=" stroke:none;fill-rule:nonzero;fill:rgb(0%,60.392159%,86.666667%);fill-opacity:1;" d="M 9.617188 8.53125 C 10.640625 8.53125 11.542969 8.121094 12.066406 7.507812 C 12.097656 7.472656 12.113281 7.425781 12.113281 7.382812 L 12.113281 6.464844 C 12.113281 6.355469 12.023438 6.269531 11.914062 6.269531 L 7.316406 6.269531 C 7.207031 6.269531 7.117188 6.355469 7.117188 6.464844 L 7.117188 7.382812 C 7.117188 7.425781 7.132812 7.472656 7.164062 7.507812 C 7.6875 8.121094 8.589844 8.53125 9.617188 8.53125 Z M 9.617188 8.53125 "/>
<path style=" stroke:none;fill-rule:nonzero;fill:rgb(10.980392%,68.235296%,89.411765%);fill-opacity:1;" d="M 11.914062 6.269531 L 7.316406 6.269531 C 7.207031 6.269531 7.117188 6.355469 7.117188 6.464844 L 7.117188 6.808594 C 7.117188 6.699219 7.207031 6.613281 7.316406 6.613281 L 11.914062 6.613281 C 12.023438 6.613281 12.113281 6.699219 12.113281 6.808594 L 12.113281 6.464844 C 12.113281 6.355469 12.023438 6.269531 11.914062 6.269531 Z M 11.914062 6.269531 "/>
<path style=" stroke:none;fill-rule:nonzero;fill:rgb(10.980392%,68.235296%,89.411765%);fill-opacity:1;" d="M 9.617188 5.667969 C 9.191406 5.667969 8.859375 5.867188 8.84375 6.128906 L 9.039062 6.128906 C 9.0625 6 9.292969 5.863281 9.617188 5.863281 C 9.9375 5.863281 10.167969 6 10.191406 6.128906 L 10.390625 6.128906 C 10.371094 5.867188 10.039062 5.667969 9.617188 5.667969 Z M 9.617188 5.667969 "/>
<path style=" stroke:none;fill-rule:nonzero;fill:rgb(99.607843%,87.058824%,22.745098%);fill-opacity:1;" d="M 9.089844 6.128906 L 8.792969 6.128906 C 8.765625 6.128906 8.742188 6.152344 8.742188 6.179688 L 8.742188 6.269531 L 9.140625 6.269531 L 9.140625 6.179688 C 9.140625 6.152344 9.117188 6.128906 9.089844 6.128906 Z M 9.089844 6.128906 "/>
<path style=" stroke:none;fill-rule:nonzero;fill:rgb(99.607843%,87.058824%,22.745098%);fill-opacity:1;" d="M 10.441406 6.128906 L 10.140625 6.128906 C 10.113281 6.128906 10.089844 6.152344 10.089844 6.179688 L 10.089844 6.269531 L 10.488281 6.269531 L 10.488281 6.179688 C 10.488281 6.152344 10.46875 6.128906 10.441406 6.128906 Z M 10.441406 6.128906 "/>
<path style=" stroke:none;fill-rule:nonzero;fill:rgb(0%,60.392159%,86.666667%);fill-opacity:1;" d="M 10.191406 6.128906 L 10.289062 6.128906 C 10.273438 5.925781 9.976562 5.765625 9.617188 5.765625 C 9.253906 5.765625 8.960938 5.925781 8.941406 6.128906 L 9.039062 6.128906 C 9.0625 6 9.292969 5.863281 9.617188 5.863281 C 9.9375 5.863281 10.167969 6 10.191406 6.128906 Z M 10.191406 6.128906 "/>
<path style=" stroke:none;fill-rule:nonzero;fill:rgb(10.980392%,68.235296%,89.411765%);fill-opacity:1;" d="M 9.375 6.265625 L 9.855469 6.265625 L 9.855469 8.09375 L 9.375 8.09375 Z M 9.375 6.265625 "/>
<path style=" stroke:none;fill-rule:nonzero;fill:rgb(15.294118%,75.686276%,90.196079%);fill-opacity:1;" d="M 9.375 6.265625 L 9.855469 6.265625 L 9.855469 6.613281 L 9.375 6.613281 Z M 9.375 6.265625 "/>
<path style=" stroke:none;fill-rule:nonzero;fill:rgb(100%,95.294118%,20.784314%);fill-opacity:1;" d="M 9.976562 8.628906 L 9.253906 8.628906 C 9.21875 8.628906 9.1875 8.597656 9.1875 8.5625 L 9.1875 8.15625 C 9.1875 8.121094 9.21875 8.09375 9.253906 8.09375 L 9.976562 8.09375 C 10.015625 8.09375 10.042969 8.121094 10.042969 8.15625 L 10.042969 8.5625 C 10.042969 8.597656 10.015625 8.628906 9.976562 8.628906 Z M 9.976562 8.628906 "/>
<path style=" stroke:none;fill-rule:nonzero;fill:rgb(96.862745%,79.607844%,8.235294%);fill-opacity:1;" d="M 9.976562 8.566406 L 9.253906 8.566406 C 9.21875 8.566406 9.1875 8.535156 9.1875 8.5 L 9.1875 8.5625 C 9.1875 8.597656 9.21875 8.628906 9.253906 8.628906 L 9.976562 8.628906 C 10.015625 8.628906 10.042969 8.597656 10.042969 8.5625 L 10.042969 8.5 C 10.042969 8.535156 10.015625 8.566406 9.976562 8.566406 Z M 9.976562 8.566406 "/>
<path style=" stroke:none;fill-rule:nonzero;fill:rgb(96.862745%,79.607844%,8.235294%);fill-opacity:1;" d="M 9.835938 8.421875 L 9.394531 8.421875 C 9.363281 8.421875 9.335938 8.394531 9.335938 8.363281 L 9.335938 8.296875 C 9.335938 8.265625 9.363281 8.242188 9.394531 8.242188 L 9.835938 8.242188 C 9.871094 8.242188 9.894531 8.265625 9.894531 8.296875 L 9.894531 8.363281 C 9.894531 8.394531 9.871094 8.421875 9.835938 8.421875 Z M 9.835938 8.421875 "/>
</g>
</svg>
