<?xml version="1.0" encoding="UTF-8"?>
<svg xmlns="http://www.w3.org/2000/svg" xmlns:xlink="http://www.w3.org/1999/xlink" width="20px" height="20px" viewBox="0 0 20 20" version="1.1">
<g id="surface1">
<path style=" stroke:none;fill-rule:nonzero;fill:rgb(0%,0%,0%);fill-opacity:1;" d="M 18.96875 7.777344 L 17.097656 7.777344 C 16.796875 7.777344 16.550781 7.613281 16.4375 7.335938 C 16.320312 7.058594 16.378906 6.765625 16.589844 6.550781 L 17.914062 5.230469 C 18.109375 5.035156 18.214844 4.777344 18.214844 4.5 C 18.214844 4.226562 18.109375 3.96875 17.914062 3.773438 L 16.226562 2.085938 C 15.839844 1.695312 15.160156 1.695312 14.769531 2.085938 L 13.449219 3.410156 C 13.234375 3.621094 12.941406 3.679688 12.664062 3.5625 C 12.386719 3.449219 12.222656 3.203125 12.222656 2.902344 L 12.222656 1.03125 C 12.222656 0.460938 11.761719 0 11.191406 0 L 8.808594 0 C 8.238281 0 7.777344 0.460938 7.777344 1.03125 L 7.777344 2.902344 C 7.777344 3.203125 7.613281 3.449219 7.335938 3.5625 C 7.058594 3.679688 6.765625 3.621094 6.550781 3.410156 L 5.230469 2.085938 C 4.839844 1.695312 4.160156 1.695312 3.773438 2.085938 L 2.085938 3.773438 C 1.890625 3.964844 1.785156 4.226562 1.785156 4.5 C 1.785156 4.777344 1.890625 5.035156 2.085938 5.230469 L 3.410156 6.550781 C 3.621094 6.765625 3.679688 7.058594 3.5625 7.335938 C 3.449219 7.613281 3.203125 7.777344 2.902344 7.777344 L 1.03125 7.777344 C 0.460938 7.777344 0 8.238281 0 8.808594 L 0 11.191406 C 0 11.761719 0.460938 12.222656 1.03125 12.222656 L 2.902344 12.222656 C 3.203125 12.222656 3.449219 12.386719 3.5625 12.664062 C 3.679688 12.941406 3.621094 13.234375 3.410156 13.449219 L 2.085938 14.769531 C 1.890625 14.964844 1.785156 15.222656 1.785156 15.5 C 1.785156 15.773438 1.890625 16.03125 2.085938 16.226562 L 3.773438 17.914062 C 4.160156 18.304688 4.839844 18.304688 5.230469 17.914062 L 6.550781 16.589844 C 6.765625 16.378906 7.054688 16.320312 7.335938 16.4375 C 7.613281 16.550781 7.777344 16.796875 7.777344 17.097656 L 7.777344 18.96875 C 7.777344 19.539062 8.238281 20 8.808594 20 L 11.191406 20 C 11.761719 20 12.222656 19.539062 12.222656 18.96875 L 12.222656 17.097656 C 12.222656 16.796875 12.386719 16.550781 12.664062 16.4375 C 12.941406 16.320312 13.234375 16.378906 13.449219 16.589844 L 14.769531 17.914062 C 15.160156 18.304688 15.839844 18.304688 16.226562 17.914062 L 17.914062 16.226562 C 18.109375 16.035156 18.214844 15.773438 18.214844 15.5 C 18.214844 15.222656 18.109375 14.964844 17.914062 14.769531 L 16.589844 13.449219 C 16.378906 13.234375 16.320312 12.941406 16.433594 12.664062 C 16.550781 12.386719 16.796875 12.222656 17.097656 12.222656 L 18.96875 12.222656 C 19.539062 12.222656 20 11.761719 20 11.191406 L 20 8.808594 C 20 8.238281 19.539062 7.777344 18.96875 7.777344 Z M 19.257812 11.191406 C 19.257812 11.351562 19.128906 11.480469 18.96875 11.480469 L 17.097656 11.480469 C 16.496094 11.480469 15.980469 11.828125 15.75 12.382812 C 15.519531 12.9375 15.640625 13.546875 16.066406 13.972656 L 17.390625 15.296875 C 17.503906 15.40625 17.503906 15.589844 17.390625 15.703125 L 15.703125 17.390625 C 15.589844 17.503906 15.40625 17.503906 15.296875 17.390625 L 13.972656 16.066406 C 13.546875 15.640625 12.9375 15.519531 12.382812 15.75 C 11.828125 15.980469 11.480469 16.496094 11.480469 17.097656 L 11.480469 18.96875 C 11.480469 19.128906 11.351562 19.257812 11.191406 19.257812 L 8.808594 19.257812 C 8.648438 19.257812 8.519531 19.128906 8.519531 18.96875 L 8.519531 17.097656 C 8.519531 16.496094 8.171875 15.980469 7.617188 15.75 C 7.429688 15.671875 7.238281 15.636719 7.050781 15.636719 C 6.675781 15.636719 6.308594 15.785156 6.027344 16.066406 L 4.703125 17.390625 C 4.589844 17.503906 4.40625 17.503906 4.296875 17.390625 L 2.609375 15.703125 C 2.496094 15.589844 2.496094 15.40625 2.609375 15.292969 L 3.933594 13.972656 C 4.359375 13.546875 4.480469 12.9375 4.25 12.382812 C 4.019531 11.828125 3.503906 11.480469 2.902344 11.480469 L 1.03125 11.480469 C 0.871094 11.480469 0.742188 11.351562 0.742188 11.191406 L 0.742188 8.808594 C 0.742188 8.648438 0.871094 8.519531 1.03125 8.519531 L 2.902344 8.519531 C 3.503906 8.519531 4.019531 8.171875 4.25 7.617188 C 4.480469 7.0625 4.359375 6.453125 3.933594 6.027344 L 2.609375 4.703125 C 2.496094 4.59375 2.496094 4.410156 2.609375 4.296875 L 4.296875 2.609375 C 4.410156 2.496094 4.59375 2.496094 4.703125 2.609375 L 6.027344 3.933594 C 6.453125 4.355469 7.0625 4.480469 7.617188 4.25 C 8.171875 4.019531 8.519531 3.503906 8.519531 2.902344 L 8.519531 1.03125 C 8.519531 0.871094 8.648438 0.742188 8.808594 0.742188 L 11.191406 0.742188 C 11.351562 0.742188 11.480469 0.871094 11.480469 1.03125 L 11.480469 2.902344 C 11.480469 3.503906 11.828125 4.019531 12.382812 4.25 C 12.9375 4.480469 13.546875 4.359375 13.972656 3.933594 L 15.296875 2.609375 C 15.410156 2.496094 15.59375 2.496094 15.703125 2.609375 L 17.390625 4.296875 C 17.503906 4.410156 17.503906 4.59375 17.390625 4.707031 L 16.066406 6.027344 C 15.640625 6.453125 15.519531 7.0625 15.75 7.617188 C 15.980469 8.171875 16.496094 8.519531 17.097656 8.519531 L 18.96875 8.519531 C 19.128906 8.519531 19.257812 8.648438 19.257812 8.808594 Z M 19.257812 11.191406 "/>
<path style=" stroke:none;fill-rule:nonzero;fill:rgb(0%,0%,0%);fill-opacity:1;" d="M 10 6.667969 C 8.160156 6.667969 6.667969 8.160156 6.667969 10 C 6.667969 11.839844 8.160156 13.332031 10 13.332031 C 11.839844 13.332031 13.332031 11.839844 13.332031 10 C 13.332031 8.160156 11.839844 6.667969 10 6.667969 Z M 10 12.59375 C 8.570312 12.59375 7.40625 11.429688 7.40625 10 C 7.40625 8.570312 8.570312 7.40625 10 7.40625 C 11.429688 7.40625 12.59375 8.570312 12.59375 10 C 12.59375 11.429688 11.429688 12.59375 10 12.59375 Z M 10 12.59375 "/>
</g>
</svg>
