<?xml version="1.0" encoding="UTF-8"?>
<svg xmlns="http://www.w3.org/2000/svg" xmlns:xlink="http://www.w3.org/1999/xlink" width="15px" height="15px" viewBox="0 0 15 15" version="1.1">
<g id="surface1">
<path style=" stroke:none;fill-rule:evenodd;fill:rgb(39.215687%,100%,85.490197%);fill-opacity:1;" d="M 9.460938 4.8125 C 9.460938 3.730469 8.585938 2.855469 7.503906 2.855469 C 6.421875 2.855469 5.546875 3.730469 5.546875 4.8125 C 5.546875 5.894531 6.421875 6.769531 7.503906 6.769531 C 8.585938 6.769531 9.460938 5.894531 9.460938 4.8125 Z M 9.460938 4.8125 "/>
<path style=" stroke:none;fill-rule:evenodd;fill:rgb(14.901961%,65.098041%,60.392159%);fill-opacity:1;" d="M 7.503906 1.875 C 9.210938 1.875 10.59375 3.160156 10.59375 4.746094 C 10.59375 5.808594 8.035156 11.734375 7.503906 13.132812 C 7.128906 12.148438 4.414062 5.882812 4.414062 4.746094 C 4.414062 3.160156 5.800781 1.875 7.503906 1.875 Z M 7.503906 2.855469 C 8.585938 2.855469 9.460938 3.730469 9.460938 4.8125 C 9.460938 5.894531 8.585938 6.769531 7.503906 6.769531 C 6.421875 6.769531 5.546875 5.894531 5.546875 4.8125 C 5.546875 3.730469 6.421875 2.855469 7.503906 2.855469 Z M 7.503906 2.855469 "/>
</g>
</svg>
