<?xml version="1.0" encoding="UTF-8"?>
<svg xmlns="http://www.w3.org/2000/svg" xmlns:xlink="http://www.w3.org/1999/xlink" width="20px" height="20px" viewBox="0 0 20 20" version="1.1">
<g id="surface1">
<path style=" stroke:none;fill-rule:nonzero;fill:rgb(33.333334%,60.392159%,100%);fill-opacity:1;" d="M 15.417969 0.832031 C 13.34375 0.832031 11.667969 2.511719 11.667969 4.582031 C 11.667969 6.65625 13.34375 8.332031 15.417969 8.332031 C 17.488281 8.332031 19.167969 6.65625 19.167969 4.582031 C 19.167969 2.511719 17.488281 0.832031 15.417969 0.832031 Z M 15.417969 7.5 C 13.804688 7.5 12.5 6.195312 12.5 4.582031 C 12.5 2.972656 13.804688 1.667969 15.417969 1.667969 C 17.027344 1.667969 18.332031 2.972656 18.332031 4.582031 C 18.332031 6.195312 17.027344 7.5 15.417969 7.5 Z M 15.417969 7.5 "/>
<path style=" stroke:none;fill-rule:nonzero;fill:rgb(6.666667%,44.705883%,100%);fill-opacity:1;" d="M 15.417969 0.832031 C 13.34375 0.832031 11.667969 2.511719 11.667969 4.582031 L 11.667969 4.71875 C 11.667969 4.738281 11.671875 4.757812 11.671875 4.78125 C 11.671875 4.785156 11.671875 4.789062 11.671875 4.792969 C 11.683594 4.980469 11.707031 5.167969 11.746094 5.351562 C 11.792969 5.578125 12.011719 5.722656 12.238281 5.675781 C 12.464844 5.628906 12.609375 5.410156 12.5625 5.183594 C 12.382812 4.324219 12.597656 3.429688 13.152344 2.746094 C 13.707031 2.0625 14.539062 1.667969 15.417969 1.667969 C 15.648438 1.667969 15.832031 1.480469 15.832031 1.25 C 15.832031 1.019531 15.648438 0.832031 15.417969 0.832031 Z M 15.417969 0.832031 "/>
<path style=" stroke:none;fill-rule:nonzero;fill:rgb(9.803922%,90.588236%,48.627451%);fill-opacity:1;" d="M 14.167969 4.167969 L 9.855469 4.167969 C 9.414062 4.167969 8.992188 4.34375 8.679688 4.65625 L 1.320312 12.011719 C 0.671875 12.664062 0.671875 13.71875 1.320312 14.367188 L 5.632812 18.679688 C 6.28125 19.328125 7.335938 19.328125 7.988281 18.679688 L 15.34375 11.320312 C 15.65625 11.007812 15.832031 10.585938 15.832031 10.144531 L 15.832031 5.832031 C 15.832031 4.914062 15.085938 4.167969 14.167969 4.167969 Z M 12.917969 8.332031 C 12.226562 8.332031 11.667969 7.773438 11.667969 7.082031 C 11.667969 6.394531 12.226562 5.832031 12.917969 5.832031 C 13.605469 5.832031 14.167969 6.394531 14.167969 7.082031 C 14.167969 7.773438 13.605469 8.332031 12.917969 8.332031 Z M 12.917969 8.332031 "/>
<path style=" stroke:none;fill-rule:nonzero;fill:rgb(0%,80.392158%,42.352942%);fill-opacity:1;" d="M 12.917969 5 C 13.707031 5 14.429688 5.449219 14.78125 6.160156 C 15.132812 6.867188 15.050781 7.714844 14.574219 8.34375 C 14.09375 8.976562 13.296875 9.277344 12.519531 9.128906 C 12.375 9.101562 12.253906 8.996094 12.207031 8.855469 C 12.15625 8.714844 12.1875 8.558594 12.285156 8.445312 C 12.382812 8.335938 12.53125 8.28125 12.679688 8.3125 C 12.738281 8.320312 12.796875 8.328125 12.855469 8.332031 L 12.878906 8.332031 C 12.882812 8.332031 12.882812 8.332031 12.886719 8.332031 L 12.917969 8.332031 C 13.605469 8.332031 14.167969 7.773438 14.167969 7.082031 C 14.167969 6.394531 13.605469 5.832031 12.917969 5.832031 C 12.6875 5.832031 12.5 5.648438 12.5 5.417969 C 12.5 5.1875 12.6875 5 12.917969 5 Z M 12.917969 5 "/>
<path style=" stroke:none;fill-rule:nonzero;fill:rgb(0%,80.392158%,42.352942%);fill-opacity:1;" d="M 15.417969 6.292969 C 15.1875 6.292969 15 6.480469 15 6.710938 L 15 10.144531 C 15 10.363281 14.914062 10.578125 14.757812 10.730469 L 7.398438 18.089844 C 7.074219 18.414062 6.546875 18.414062 6.21875 18.089844 L 5.816406 17.6875 C 5.65625 17.523438 5.390625 17.523438 5.230469 17.6875 C 5.066406 17.847656 5.066406 18.113281 5.230469 18.277344 L 5.632812 18.679688 C 6.28125 19.328125 7.335938 19.328125 7.988281 18.679688 L 7.992188 18.671875 L 7.996094 18.671875 L 8.003906 18.664062 C 8.007812 18.660156 8.011719 18.65625 8.015625 18.648438 L 8.019531 18.648438 L 8.035156 18.628906 L 8.039062 18.625 L 8.042969 18.625 L 8.074219 18.59375 L 8.074219 18.589844 L 8.078125 18.585938 L 8.15625 18.511719 L 8.15625 18.507812 L 8.164062 18.5 L 8.167969 18.5 L 8.1875 18.480469 L 8.1875 18.476562 L 8.195312 18.46875 L 8.199219 18.46875 L 8.199219 18.464844 L 8.203125 18.464844 L 8.207031 18.460938 L 8.207031 18.457031 L 8.210938 18.453125 L 8.214844 18.453125 L 8.214844 18.449219 L 8.21875 18.449219 L 8.21875 18.445312 L 8.234375 18.433594 C 9.304688 17.363281 13.582031 13.085938 14.933594 11.734375 L 14.941406 11.726562 L 14.941406 11.722656 L 14.945312 11.722656 L 14.953125 11.714844 L 14.953125 11.710938 L 14.960938 11.703125 C 14.976562 11.691406 14.988281 11.679688 15 11.667969 L 15 11.664062 L 15.035156 11.628906 L 15.039062 11.628906 L 15.046875 11.621094 L 15.046875 11.617188 L 15.050781 11.617188 L 15.066406 11.601562 L 15.070312 11.59375 L 15.078125 11.585938 L 15.082031 11.585938 L 15.128906 11.539062 L 15.128906 11.535156 L 15.132812 11.535156 L 15.132812 11.53125 L 15.136719 11.53125 L 15.144531 11.523438 L 15.144531 11.519531 L 15.152344 11.511719 L 15.160156 11.507812 L 15.175781 11.492188 L 15.175781 11.488281 L 15.253906 11.414062 L 15.257812 11.410156 L 15.257812 11.40625 L 15.261719 11.40625 L 15.332031 11.335938 L 15.335938 11.328125 L 15.339844 11.328125 L 15.339844 11.324219 L 15.34375 11.320312 C 15.65625 11.007812 15.832031 10.585938 15.832031 10.144531 L 15.832031 6.710938 C 15.832031 6.480469 15.648438 6.292969 15.417969 6.292969 Z M 15.417969 6.292969 "/>
<path style=" stroke:none;fill-rule:nonzero;fill:rgb(96.470588%,92.941177%,100%);fill-opacity:1;" d="M 11.492188 10.660156 L 9.683594 8.851562 C 8.992188 8.160156 7.875 8.160156 7.183594 8.851562 C 6.492188 9.542969 6.492188 10.660156 7.183594 11.351562 L 8.648438 12.816406 C 8.878906 13.046875 8.878906 13.417969 8.648438 13.648438 C 8.417969 13.878906 8.046875 13.878906 7.816406 13.648438 L 6.007812 11.839844 C 5.777344 11.609375 5.402344 11.609375 5.171875 11.839844 C 4.941406 12.070312 4.941406 12.441406 5.171875 12.671875 L 6.980469 14.480469 C 7.671875 15.171875 8.792969 15.171875 9.480469 14.480469 C 10.171875 13.792969 10.171875 12.671875 9.480469 11.980469 L 8.019531 10.519531 C 7.789062 10.289062 7.789062 9.914062 8.019531 9.683594 C 8.25 9.453125 8.621094 9.453125 8.851562 9.683594 L 10.660156 11.492188 C 10.890625 11.722656 11.265625 11.722656 11.496094 11.496094 C 11.722656 11.265625 11.722656 10.890625 11.492188 10.660156 Z M 11.492188 10.660156 "/>
<path style=" stroke:none;fill-rule:nonzero;fill:rgb(96.470588%,92.941177%,100%);fill-opacity:1;" d="M 9.582031 9.582031 L 10.660156 8.507812 C 10.890625 8.277344 11.265625 8.277344 11.492188 8.507812 C 11.722656 8.734375 11.722656 9.109375 11.492188 9.339844 L 10.417969 10.417969 C 10.1875 10.648438 9.8125 10.648438 9.582031 10.417969 C 9.351562 10.1875 9.351562 9.8125 9.582031 9.582031 Z M 9.582031 9.582031 "/>
<path style=" stroke:none;fill-rule:nonzero;fill:rgb(96.470588%,92.941177%,100%);fill-opacity:1;" d="M 5.171875 13.992188 L 6.078125 13.089844 C 6.308594 12.859375 6.679688 12.859375 6.910156 13.089844 C 7.140625 13.320312 7.140625 13.691406 6.910156 13.921875 L 6.007812 14.828125 C 5.777344 15.058594 5.402344 15.058594 5.171875 14.828125 C 4.941406 14.597656 4.941406 14.222656 5.171875 13.992188 Z M 5.171875 13.992188 "/>
<path style=" stroke:none;fill-rule:nonzero;fill:rgb(54.901963%,95.294118%,74.509805%);fill-opacity:1;" d="M 1.839844 12.328125 L 3.992188 10.171875 C 4.222656 9.941406 4.597656 9.941406 4.828125 10.171875 C 5.058594 10.402344 5.058594 10.777344 4.828125 11.007812 L 2.671875 13.160156 C 2.441406 13.390625 2.070312 13.390625 1.839844 13.160156 C 1.609375 12.929688 1.609375 12.558594 1.839844 12.328125 Z M 1.839844 12.328125 "/>
<path style=" stroke:none;fill-rule:nonzero;fill:rgb(54.901963%,95.294118%,74.509805%);fill-opacity:1;" d="M 5.171875 8.992188 L 8.992188 5.171875 C 9.222656 4.941406 9.597656 4.941406 9.828125 5.171875 C 10.058594 5.402344 10.058594 5.777344 9.828125 6.007812 L 6.007812 9.828125 C 5.777344 10.058594 5.402344 10.058594 5.171875 9.828125 C 4.941406 9.597656 4.941406 9.222656 5.171875 8.992188 Z M 5.171875 8.992188 "/>
<path style=" stroke:none;fill-rule:nonzero;fill:rgb(33.333334%,60.392159%,100%);fill-opacity:1;" d="M 15.417969 7.5 C 14.65625 7.5 13.921875 7.199219 13.378906 6.667969 L 12.5 6.667969 L 12.5 6.914062 C 13.1875 7.773438 14.230469 8.332031 15.417969 8.332031 C 16.160156 8.335938 16.882812 8.113281 17.5 7.699219 L 17.5 6.667969 L 17.453125 6.667969 C 16.910156 7.199219 16.179688 7.5 15.417969 7.5 Z M 15.417969 7.5 "/>
</g>
</svg>
