<?xml version="1.0" encoding="UTF-8"?>
<svg xmlns="http://www.w3.org/2000/svg" xmlns:xlink="http://www.w3.org/1999/xlink" width="40px" height="40px" viewBox="0 0 40 40" version="1.1">
<g id="surface1">
<path style=" stroke:none;fill-rule:nonzero;fill:rgb(0%,0%,0%);fill-opacity:1;" d="M 39.414062 34.441406 L 37.496094 34.441406 L 37.496094 16.238281 C 38.578125 15.964844 39.375 14.945312 39.375 13.738281 L 39.375 5.597656 C 39.375 4.929688 38.828125 4.382812 38.160156 4.382812 L 1.839844 4.382812 C 1.171875 4.382812 0.625 4.929688 0.625 5.597656 L 0.625 13.738281 C 0.625 14.945312 1.421875 15.964844 2.503906 16.238281 L 2.503906 34.441406 L 0.585938 34.441406 C 0.261719 34.441406 0 34.707031 0 35.03125 C 0 35.355469 0.261719 35.617188 0.585938 35.617188 L 39.414062 35.617188 C 39.738281 35.617188 40 35.355469 40 35.03125 C 40 34.707031 39.738281 34.441406 39.414062 34.441406 Z M 38.199219 5.597656 L 38.199219 13.738281 C 38.199219 14.472656 37.652344 15.097656 36.976562 15.132812 C 36.617188 15.152344 36.277344 15.027344 36.019531 14.78125 C 35.757812 14.535156 35.617188 14.203125 35.617188 13.84375 L 35.617188 5.558594 L 38.160156 5.558594 C 38.183594 5.558594 38.199219 5.574219 38.199219 5.597656 Z M 5.558594 5.558594 L 8.140625 5.558594 L 8.140625 13.84375 C 8.140625 14.554688 7.5625 15.136719 6.847656 15.136719 C 6.136719 15.136719 5.558594 14.554688 5.558594 13.84375 Z M 9.316406 5.558594 L 11.898438 5.558594 L 11.898438 13.84375 C 11.898438 14.554688 11.320312 15.136719 10.605469 15.136719 C 9.894531 15.136719 9.316406 14.554688 9.316406 13.84375 Z M 13.074219 5.558594 L 15.65625 5.558594 L 15.65625 13.84375 C 15.65625 14.554688 15.074219 15.136719 14.363281 15.136719 C 13.652344 15.136719 13.074219 14.554688 13.074219 13.84375 Z M 16.828125 5.558594 L 19.414062 5.558594 L 19.414062 13.84375 C 19.414062 14.554688 18.832031 15.136719 18.121094 15.136719 C 17.410156 15.136719 16.828125 14.554688 16.828125 13.84375 Z M 20.585938 5.558594 L 23.171875 5.558594 L 23.171875 13.84375 C 23.171875 14.554688 22.589844 15.136719 21.878906 15.136719 C 21.167969 15.136719 20.585938 14.554688 20.585938 13.84375 Z M 24.34375 5.558594 L 26.925781 5.558594 L 26.925781 13.84375 C 26.925781 14.554688 26.347656 15.136719 25.636719 15.136719 C 24.925781 15.136719 24.34375 14.554688 24.34375 13.84375 Z M 28.101562 5.558594 L 30.683594 5.558594 L 30.683594 13.84375 C 30.683594 14.554688 30.105469 15.136719 29.394531 15.136719 C 28.679688 15.136719 28.101562 14.554688 28.101562 13.84375 Z M 31.859375 5.558594 L 34.441406 5.558594 L 34.441406 13.84375 C 34.441406 14.554688 33.863281 15.136719 33.152344 15.136719 C 32.4375 15.136719 31.859375 14.554688 31.859375 13.84375 Z M 1.800781 13.738281 L 1.800781 5.597656 C 1.800781 5.574219 1.816406 5.558594 1.839844 5.558594 L 4.382812 5.558594 L 4.382812 13.84375 C 4.382812 14.203125 4.242188 14.535156 3.980469 14.78125 C 3.722656 15.027344 3.382812 15.152344 3.023438 15.132812 C 2.347656 15.097656 1.800781 14.472656 1.800781 13.738281 Z M 3.679688 16.238281 C 4.089844 16.140625 4.472656 15.933594 4.789062 15.632812 C 4.851562 15.570312 4.914062 15.507812 4.972656 15.441406 C 5.421875 15.972656 6.097656 16.308594 6.847656 16.308594 C 7.601562 16.308594 8.273438 15.972656 8.726562 15.4375 C 9.179688 15.972656 9.855469 16.308594 10.605469 16.308594 C 11.359375 16.308594 12.03125 15.972656 12.484375 15.4375 C 12.9375 15.972656 13.613281 16.308594 14.363281 16.308594 C 15.117188 16.308594 15.789062 15.972656 16.242188 15.4375 C 16.695312 15.972656 17.371094 16.308594 18.121094 16.308594 C 18.875 16.308594 19.546875 15.972656 20 15.4375 C 20.453125 15.972656 21.125 16.308594 21.878906 16.308594 C 22.628906 16.308594 23.304688 15.972656 23.757812 15.4375 C 24.210938 15.972656 24.882812 16.308594 25.636719 16.308594 C 26.386719 16.308594 27.0625 15.972656 27.515625 15.4375 C 27.96875 15.972656 28.640625 16.308594 29.394531 16.308594 C 30.144531 16.308594 30.820312 15.972656 31.273438 15.4375 C 31.726562 15.972656 32.398438 16.308594 33.152344 16.308594 C 33.902344 16.308594 34.574219 15.972656 35.027344 15.441406 C 35.085938 15.507812 35.148438 15.570312 35.210938 15.632812 C 35.527344 15.933594 35.910156 16.140625 36.320312 16.242188 L 36.320312 34.441406 L 33.738281 34.441406 L 33.738281 20.625 C 33.738281 19.957031 33.195312 19.414062 32.523438 19.414062 L 25.011719 19.414062 C 24.339844 19.414062 23.796875 19.957031 23.796875 20.625 L 23.796875 34.441406 L 3.679688 34.441406 Z M 32.5625 34.441406 L 24.96875 34.441406 L 24.96875 20.625 C 24.96875 20.605469 24.988281 20.585938 25.011719 20.585938 L 32.523438 20.585938 C 32.546875 20.585938 32.5625 20.605469 32.5625 20.625 Z M 32.5625 34.441406 "/>
<path style=" stroke:none;fill-rule:nonzero;fill:rgb(0%,0%,0%);fill-opacity:1;" d="M 26.886719 26.300781 C 26.5625 26.300781 26.300781 26.5625 26.300781 26.886719 L 26.300781 28.140625 C 26.300781 28.464844 26.5625 28.726562 26.886719 28.726562 C 27.210938 28.726562 27.476562 28.464844 27.476562 28.140625 L 27.476562 26.886719 C 27.476562 26.5625 27.210938 26.300781 26.886719 26.300781 Z M 26.886719 26.300781 "/>
<path style=" stroke:none;fill-rule:nonzero;fill:rgb(0%,0%,0%);fill-opacity:1;" d="M 20.546875 19.414062 L 6.925781 19.414062 C 6.5625 19.414062 6.261719 19.710938 6.261719 20.078125 L 6.261719 31.195312 C 6.261719 31.5625 6.5625 31.859375 6.925781 31.859375 L 20.546875 31.859375 C 20.914062 31.859375 21.214844 31.5625 21.214844 31.195312 L 21.214844 20.078125 C 21.214844 19.710938 20.914062 19.414062 20.546875 19.414062 Z M 20.039062 30.683594 L 7.4375 30.683594 L 7.4375 20.585938 L 20.039062 20.585938 Z M 20.039062 30.683594 "/>
</g>
</svg>
