<?xml version="1.0" encoding="UTF-8"?>
<svg xmlns="http://www.w3.org/2000/svg" xmlns:xlink="http://www.w3.org/1999/xlink" width="200px" height="200px" viewBox="0 0 200 200" version="1.1">
<g id="surface1">
<path style=" stroke:none;fill-rule:nonzero;fill:rgb(0%,0%,0%);fill-opacity:1;" d="M 197.066406 172.210938 L 187.476562 172.210938 L 187.476562 81.1875 C 192.894531 79.824219 196.867188 74.726562 196.867188 68.6875 L 196.867188 27.984375 C 196.867188 24.640625 194.148438 21.917969 190.800781 21.917969 L 9.199219 21.917969 C 5.851562 21.917969 3.132812 24.640625 3.132812 27.984375 L 3.132812 68.6875 C 3.132812 74.730469 7.105469 79.824219 12.523438 81.1875 L 12.523438 172.210938 L 2.933594 172.210938 C 1.3125 172.210938 0 173.527344 0 175.148438 C 0 176.769531 1.3125 178.082031 2.933594 178.082031 L 197.066406 178.082031 C 198.6875 178.082031 200 176.769531 200 175.148438 C 200 173.527344 198.6875 172.210938 197.066406 172.210938 Z M 190.996094 27.984375 L 190.996094 68.6875 C 190.996094 72.359375 188.257812 75.492188 184.890625 75.667969 C 183.09375 75.761719 181.394531 75.136719 180.09375 73.90625 C 178.796875 72.671875 178.082031 71.007812 178.082031 69.21875 L 178.082031 27.789062 L 190.800781 27.789062 C 190.910156 27.789062 190.996094 27.875 190.996094 27.984375 Z M 27.789062 27.789062 L 40.703125 27.789062 L 40.703125 69.21875 C 40.703125 72.78125 37.808594 75.679688 34.246094 75.679688 C 30.6875 75.679688 27.789062 72.78125 27.789062 69.21875 Z M 46.574219 27.789062 L 59.492188 27.789062 L 59.492188 69.21875 C 59.492188 72.78125 56.59375 75.679688 53.035156 75.679688 C 49.472656 75.679688 46.574219 72.78125 46.574219 69.21875 Z M 65.363281 27.789062 L 78.277344 27.789062 L 78.277344 69.21875 C 78.277344 72.78125 75.378906 75.679688 71.820312 75.679688 C 68.257812 75.679688 65.363281 72.78125 65.363281 69.21875 Z M 84.148438 27.789062 L 97.066406 27.789062 L 97.066406 69.21875 C 97.066406 72.78125 94.167969 75.679688 90.605469 75.679688 C 87.046875 75.679688 84.148438 72.78125 84.148438 69.21875 Z M 102.933594 27.789062 L 115.851562 27.789062 L 115.851562 69.21875 C 115.851562 72.78125 112.953125 75.679688 109.394531 75.679688 C 105.832031 75.679688 102.933594 72.78125 102.933594 69.21875 Z M 121.722656 27.789062 L 134.636719 27.789062 L 134.636719 69.21875 C 134.636719 72.78125 131.742188 75.679688 128.179688 75.679688 C 124.621094 75.679688 121.722656 72.78125 121.722656 69.21875 Z M 140.507812 27.789062 L 153.425781 27.789062 L 153.425781 69.21875 C 153.425781 72.78125 150.527344 75.679688 146.964844 75.679688 C 143.40625 75.679688 140.507812 72.78125 140.507812 69.21875 Z M 159.296875 27.789062 L 172.210938 27.789062 L 172.210938 69.21875 C 172.210938 72.78125 169.3125 75.679688 165.753906 75.679688 C 162.191406 75.679688 159.296875 72.78125 159.296875 69.21875 Z M 9.003906 68.6875 L 9.003906 27.984375 C 9.003906 27.875 9.089844 27.789062 9.199219 27.789062 L 21.917969 27.789062 L 21.917969 69.21875 C 21.917969 71.007812 21.203125 72.671875 19.902344 73.90625 C 18.605469 75.136719 16.90625 75.761719 15.109375 75.667969 C 11.742188 75.492188 9.003906 72.359375 9.003906 68.6875 Z M 18.394531 81.199219 C 20.457031 80.699219 22.359375 79.667969 23.945312 78.164062 C 24.265625 77.859375 24.570312 77.535156 24.855469 77.199219 C 27.117188 79.859375 30.488281 81.546875 34.246094 81.546875 C 38.003906 81.546875 41.375 79.859375 43.640625 77.195312 C 45.902344 79.859375 49.273438 81.546875 53.035156 81.546875 C 56.792969 81.546875 60.164062 79.859375 62.425781 77.195312 C 64.691406 79.859375 68.0625 81.546875 71.820312 81.546875 C 75.578125 81.546875 78.949219 79.859375 81.214844 77.195312 C 83.476562 79.859375 86.847656 81.546875 90.605469 81.546875 C 94.367188 81.546875 97.738281 79.859375 100 77.195312 C 102.261719 79.859375 105.632812 81.546875 109.394531 81.546875 C 113.152344 81.546875 116.523438 79.859375 118.785156 77.195312 C 121.050781 79.859375 124.421875 81.546875 128.179688 81.546875 C 131.9375 81.546875 135.308594 79.859375 137.574219 77.195312 C 139.835938 79.859375 143.207031 81.546875 146.964844 81.546875 C 150.726562 81.546875 154.097656 79.859375 156.359375 77.195312 C 158.625 79.859375 161.996094 81.546875 165.753906 81.546875 C 169.511719 81.546875 172.878906 79.859375 175.144531 77.199219 C 175.429688 77.535156 175.734375 77.859375 176.054688 78.164062 C 177.640625 79.667969 179.542969 80.699219 181.605469 81.203125 L 181.605469 172.210938 L 168.6875 172.210938 L 168.6875 103.132812 C 168.6875 99.785156 165.96875 97.066406 162.621094 97.066406 L 125.050781 97.066406 C 121.703125 97.066406 118.980469 99.785156 118.980469 103.132812 L 118.980469 172.210938 L 18.394531 172.210938 Z M 162.816406 172.210938 L 124.851562 172.210938 L 124.851562 103.132812 C 124.851562 103.023438 124.941406 102.933594 125.050781 102.933594 L 162.621094 102.933594 C 162.730469 102.933594 162.816406 103.023438 162.816406 103.132812 Z M 162.816406 172.210938 "/>
<path style=" stroke:none;fill-rule:nonzero;fill:rgb(0%,0%,0%);fill-opacity:1;" d="M 134.441406 131.507812 C 132.820312 131.507812 131.507812 132.820312 131.507812 134.441406 L 131.507812 140.703125 C 131.507812 142.324219 132.820312 143.640625 134.441406 143.640625 C 136.0625 143.640625 137.378906 142.324219 137.378906 140.703125 L 137.378906 134.441406 C 137.378906 132.820312 136.0625 131.507812 134.441406 131.507812 Z M 134.441406 131.507812 "/>
<path style=" stroke:none;fill-rule:nonzero;fill:rgb(0%,0%,0%);fill-opacity:1;" d="M 102.738281 97.066406 L 34.636719 97.066406 C 32.804688 97.066406 31.3125 98.558594 31.3125 100.390625 L 31.3125 155.96875 C 31.3125 157.804688 32.804688 159.296875 34.636719 159.296875 L 102.738281 159.296875 C 104.574219 159.296875 106.066406 157.804688 106.066406 155.96875 L 106.066406 100.390625 C 106.066406 98.558594 104.574219 97.066406 102.738281 97.066406 Z M 100.195312 153.425781 L 37.183594 153.425781 L 37.183594 102.933594 L 100.195312 102.933594 Z M 100.195312 153.425781 "/>
</g>
</svg>
