<?xml version="1.0" encoding="UTF-8"?>
<svg xmlns="http://www.w3.org/2000/svg" xmlns:xlink="http://www.w3.org/1999/xlink" width="80px" height="80px" viewBox="0 0 80 80" version="1.1">
<g id="surface1">
<path style=" stroke:none;fill-rule:nonzero;fill:rgb(0%,0%,0%);fill-opacity:1;" d="M 78.824219 68.882812 L 74.988281 68.882812 L 74.988281 32.476562 C 77.15625 31.929688 78.746094 29.890625 78.746094 27.476562 L 78.746094 11.195312 C 78.746094 9.855469 77.660156 8.765625 76.320312 8.765625 L 3.679688 8.765625 C 2.339844 8.765625 1.253906 9.855469 1.253906 11.195312 L 1.253906 27.476562 C 1.253906 29.890625 2.84375 31.929688 5.011719 32.476562 L 5.011719 68.882812 L 1.175781 68.882812 C 0.527344 68.882812 0 69.410156 0 70.058594 C 0 70.707031 0.527344 71.234375 1.175781 71.234375 L 78.824219 71.234375 C 79.472656 71.234375 80 70.707031 80 70.058594 C 80 69.410156 79.472656 68.882812 78.824219 68.882812 Z M 76.398438 11.195312 L 76.398438 27.476562 C 76.398438 28.945312 75.304688 30.195312 73.957031 30.265625 C 73.238281 30.304688 72.558594 30.054688 72.039062 29.5625 C 71.519531 29.070312 71.234375 28.402344 71.234375 27.6875 L 71.234375 11.117188 L 76.320312 11.117188 C 76.363281 11.117188 76.398438 11.152344 76.398438 11.195312 Z M 11.117188 11.117188 L 16.28125 11.117188 L 16.28125 27.6875 C 16.28125 29.113281 15.121094 30.269531 13.699219 30.269531 C 12.273438 30.269531 11.117188 29.113281 11.117188 27.6875 Z M 18.628906 11.117188 L 23.796875 11.117188 L 23.796875 27.6875 C 23.796875 29.113281 22.636719 30.269531 21.214844 30.269531 C 19.789062 30.269531 18.628906 29.113281 18.628906 27.6875 Z M 26.144531 11.117188 L 31.3125 11.117188 L 31.3125 27.6875 C 31.3125 29.113281 30.152344 30.269531 28.726562 30.269531 C 27.304688 30.269531 26.144531 29.113281 26.144531 27.6875 Z M 33.660156 11.117188 L 38.824219 11.117188 L 38.824219 27.6875 C 38.824219 29.113281 37.667969 30.269531 36.242188 30.269531 C 34.816406 30.269531 33.660156 29.113281 33.660156 27.6875 Z M 41.175781 11.117188 L 46.339844 11.117188 L 46.339844 27.6875 C 46.339844 29.113281 45.183594 30.269531 43.757812 30.269531 C 42.332031 30.269531 41.175781 29.113281 41.175781 27.6875 Z M 48.6875 11.117188 L 53.855469 11.117188 L 53.855469 27.6875 C 53.855469 29.113281 52.695312 30.269531 51.273438 30.269531 C 49.847656 30.269531 48.6875 29.113281 48.6875 27.6875 Z M 56.203125 11.117188 L 61.371094 11.117188 L 61.371094 27.6875 C 61.371094 29.113281 60.210938 30.269531 58.785156 30.269531 C 57.363281 30.269531 56.203125 29.113281 56.203125 27.6875 Z M 63.71875 11.117188 L 68.882812 11.117188 L 68.882812 27.6875 C 68.882812 29.113281 67.726562 30.269531 66.300781 30.269531 C 64.878906 30.269531 63.71875 29.113281 63.71875 27.6875 Z M 3.601562 27.476562 L 3.601562 11.195312 C 3.601562 11.152344 3.636719 11.117188 3.679688 11.117188 L 8.765625 11.117188 L 8.765625 27.6875 C 8.765625 28.402344 8.480469 29.070312 7.960938 29.5625 C 7.441406 30.054688 6.761719 30.304688 6.042969 30.265625 C 4.695312 30.195312 3.601562 28.945312 3.601562 27.476562 Z M 7.359375 32.480469 C 8.183594 32.277344 8.945312 31.867188 9.578125 31.265625 C 9.707031 31.144531 9.828125 31.015625 9.941406 30.878906 C 10.847656 31.945312 12.195312 32.621094 13.699219 32.621094 C 15.203125 32.621094 16.550781 31.941406 17.457031 30.878906 C 18.359375 31.941406 19.710938 32.621094 21.214844 32.621094 C 22.71875 32.621094 24.066406 31.941406 24.96875 30.878906 C 25.875 31.941406 27.222656 32.621094 28.726562 32.621094 C 30.230469 32.621094 31.582031 31.941406 32.484375 30.878906 C 33.390625 31.941406 34.738281 32.621094 36.242188 32.621094 C 37.746094 32.621094 39.09375 31.941406 40 30.878906 C 40.90625 31.941406 42.253906 32.621094 43.757812 32.621094 C 45.261719 32.621094 46.609375 31.941406 47.515625 30.878906 C 48.417969 31.941406 49.769531 32.621094 51.273438 32.621094 C 52.777344 32.621094 54.125 31.941406 55.03125 30.878906 C 55.933594 31.941406 57.28125 32.621094 58.785156 32.621094 C 60.289062 32.621094 61.640625 31.941406 62.542969 30.878906 C 63.449219 31.941406 64.796875 32.621094 66.300781 32.621094 C 67.804688 32.621094 69.152344 31.945312 70.058594 30.878906 C 70.171875 31.015625 70.292969 31.144531 70.421875 31.265625 C 71.054688 31.867188 71.816406 32.28125 72.640625 32.480469 L 72.640625 68.882812 L 67.476562 68.882812 L 67.476562 41.253906 C 67.476562 39.914062 66.386719 38.824219 65.050781 38.824219 L 50.019531 38.824219 C 48.679688 38.824219 47.59375 39.914062 47.59375 41.253906 L 47.59375 68.882812 L 7.359375 68.882812 Z M 65.128906 68.882812 L 49.941406 68.882812 L 49.941406 41.253906 C 49.941406 41.210938 49.976562 41.175781 50.019531 41.175781 L 65.050781 41.175781 C 65.09375 41.175781 65.128906 41.210938 65.128906 41.253906 Z M 65.128906 68.882812 "/>
<path style=" stroke:none;fill-rule:nonzero;fill:rgb(0%,0%,0%);fill-opacity:1;" d="M 53.777344 52.601562 C 53.128906 52.601562 52.601562 53.128906 52.601562 53.777344 L 52.601562 56.28125 C 52.601562 56.929688 53.128906 57.457031 53.777344 57.457031 C 54.425781 57.457031 54.949219 56.929688 54.949219 56.28125 L 54.949219 53.777344 C 54.949219 53.128906 54.425781 52.601562 53.777344 52.601562 Z M 53.777344 52.601562 "/>
<path style=" stroke:none;fill-rule:nonzero;fill:rgb(0%,0%,0%);fill-opacity:1;" d="M 41.097656 38.824219 L 13.855469 38.824219 C 13.121094 38.824219 12.523438 39.421875 12.523438 40.15625 L 12.523438 62.386719 C 12.523438 63.121094 13.121094 63.71875 13.855469 63.71875 L 41.097656 63.71875 C 41.828125 63.71875 42.425781 63.121094 42.425781 62.386719 L 42.425781 40.15625 C 42.425781 39.421875 41.828125 38.824219 41.097656 38.824219 Z M 40.078125 61.371094 L 14.871094 61.371094 L 14.871094 41.175781 L 40.078125 41.175781 Z M 40.078125 61.371094 "/>
</g>
</svg>
